<svg width="1024" height="1024" viewBox="0 0 1024 1024" xmlns="http://www.w3.org/2000/svg">
  <g transform="translate(176 236) scale(25.5)">
    <path d="M3 15c2 3 4 4 7 4s7 -3 7 -7s-3 -7 -6 -7s-5 1.5 -5 4s2 5 6 5s8.408 -2.453 10 -5" fill="none" stroke="#252933" stroke-width="1.8" stroke-linecap="round" stroke-linejoin="round" />
  </g>

  <path d="M272 678c112 56 242 60 374 6" fill="none" stroke="#E36B36" stroke-width="24" stroke-linecap="round" opacity="0.96" />
  <circle cx="274" cy="678" r="24" fill="#E36B36" />

  <path d="M760 260l18 42 42 18 -42 18 -18 42 -18 -42 -42 -18 42 -18z" fill="#E36B36" />
</svg>
